<?xml version="1.0" encoding="UTF-8"?>
<svg version="1.1" xmlns="http://www.w3.org/2000/svg" width="512" height="512">
<path d="M0 0 C64.68 0 129.36 0 196 0 C195.3286473 5.37082159 194.60216198 10.09135073 193.31005859 15.27050781 C193.05871407 16.28674728 193.05871407 16.28674728 192.80229187 17.32351685 C192.44194117 18.77859485 192.07958199 20.23317669 191.71537399 21.68729401 C191.13927113 23.98975952 190.56978677 26.29377215 190.00210571 28.59832764 C188.38853283 35.14474779 186.76497523 41.68865912 185.1328125 48.23046875 C184.13173215 52.24480773 183.13971207 56.26129696 182.15327835 60.27925873 C181.77640589 61.8063467 181.39601503 63.33257085 181.01203537 64.85788727 C180.4765756 66.98561599 179.9526266 69.1158778 179.43115234 71.24707031 C179.12994476 72.45760071 178.82873718 73.6681311 178.5184021 74.91534424 C178.02995476 77.82175975 177.87857505 79.31931381 179 82 C181.19314919 84.59462459 181.19314919 84.59462459 183.875 87.125 C184.75929688 87.99382812 185.64359375 88.86265625 186.5546875 89.7578125 C188.98283722 92.09940501 188.98283722 92.09940501 192 94 C192 94.66 192 95.32 192 96 C192.99 96.33 193.98 96.66 195 97 C196.72052397 98.61100988 198.37903615 100.28885075 200 102 C200.67554932 102.70987061 200.67554932 102.70987061 201.36474609 103.43408203 C244.59114588 149.10811438 262.68080119 201.23889424 262.39111328 263.53662109 C262.37389811 267.27548965 262.38399148 271.01371739 262.40183067 274.75256348 C262.41278365 277.69383391 262.40917228 280.63495753 262.4014473 283.57623291 C262.39854904 285.60925734 262.40745808 287.64228812 262.4168396 289.67529297 C262.31509324 303.29695215 259.97113877 315.66645127 254 328 C253.33677734 329.38638672 253.33677734 329.38638672 252.66015625 330.80078125 C242.52429532 350.65134546 224.86675076 364.68300106 204 372 C193.53196669 375.21452661 183.53010912 375.43521197 172.70385742 375.40405273 C170.89540691 375.40976715 169.08696001 375.41673552 167.27851868 375.42485046 C162.40228393 375.44268034 157.52623013 375.44163255 152.64997268 375.43590808 C148.56245059 375.43280088 144.4749625 375.43892573 140.38744527 375.44494683 C130.73507429 375.45895759 121.08279188 375.45746007 111.43041992 375.44604492 C101.51073075 375.43457204 91.59131221 375.44863339 81.67165869 375.4754414 C73.12003032 375.49767718 64.56848641 375.50421795 56.01683122 375.49836498 C50.92474621 375.49501241 45.83283453 375.49729628 40.74077415 375.51461601 C35.94790448 375.53020888 31.15543212 375.52599438 26.36257744 375.50731087 C24.61643799 375.50365861 22.87026827 375.5066336 21.12415695 375.51719666 C7.09842952 375.59548321 -6.58313365 374.12320004 -19.1875 367.375 C-20.16710693 366.8651355 -20.16710693 366.8651355 -21.16650391 366.3449707 C-41.52726661 355.36797142 -55.60166257 337.82827168 -63 316 C-65.60814066 305.83713276 -66.44689049 296.18741497 -66.3984375 285.6875 C-66.40046985 284.26188001 -66.40339076 282.83626105 -66.40713501 281.41064453 C-66.41151555 278.44244353 -66.40527533 275.47451635 -66.39111328 272.50634766 C-66.37414653 268.77618642 -66.38409145 265.04667323 -66.40143681 261.316535 C-66.62597193 204.37918612 -51.30690316 150.73733293 -10.3984375 109.328125 C-8.64372488 107.56750267 -6.88137368 105.81697934 -5.09936523 104.08398438 C-2.17989172 101.32774125 -2.17989172 101.32774125 0 98 C-1.01578125 97.896875 -2.0315625 97.79375 -3.078125 97.6875 C-17.97397638 95.07627506 -30.57703878 83.98713114 -39.0625 72.046875 C-47.72429191 58.4255087 -50 44.87027498 -50 29 C-39.77 29 -29.54 29 -19 29 C-18.34 33.95 -17.68 38.9 -17 44 C-12.99791161 53.6794696 -8.2940138 61.74307593 1.56982422 66.15429688 C4.45159952 67.157157 7.25597045 67.63504924 10.26953125 68.10546875 C11.88178589 68.36106567 11.88178589 68.36106567 13.52661133 68.62182617 C14.34282959 68.74662354 15.15904785 68.8714209 16 69 C15.82904816 68.31841324 15.65809631 67.63682648 15.48196411 66.93458557 C13.86261113 60.47730047 12.244422 54.01972493 10.62750435 47.56182957 C9.7964083 44.24264001 8.96487963 40.92356015 8.13232422 37.60473633 C7.17282509 33.77979197 6.21527606 29.95436068 5.2578125 26.12890625 C4.96190216 24.95042618 4.66599182 23.77194611 4.3611145 22.55775452 C3.14376824 17.68869769 1.93311288 12.81803838 0.79638672 7.92944336 C0.64015839 7.25900497 0.48393005 6.58856659 0.32296753 5.89781189 C0 4 0 4 0 0 Z M39 31 C41.82380173 43.70710778 44.84289369 56.37157475 48 69 C81 69 114 69 148 69 C154.07855316 50.19432877 154.07855316 50.19432877 157 31 C118.06 31 79.12 31 39 31 Z M6 137 C4.97505824 138.31569925 3.94801959 139.62976879 2.91848755 140.94187927 C-1.35053984 146.40642558 -5.50680878 151.89065186 -9.125 157.8125 C-9.73746582 158.80733398 -9.73746582 158.80733398 -10.36230469 159.82226562 C-19.63105796 175.12833134 -26.50121469 191.11371082 -30.75 208.5 C-30.94875732 209.30526123 -31.14751465 210.11052246 -31.35229492 210.94018555 C-31.97066233 213.61748052 -32.50188318 216.29768789 -33 219 C-33.18908936 220.02383789 -33.37817871 221.04767578 -33.57299805 222.10253906 C-35.62423304 235.46069302 -35.33940638 248.9836842 -35.31567383 262.46435547 C-35.30985325 266.04339567 -35.32691808 269.62192271 -35.3500185 273.20087814 C-35.36487091 275.9996226 -35.36561272 278.79824612 -35.36250877 281.59702301 C-35.36325713 283.54653717 -35.37700696 285.49603289 -35.39118958 287.44549561 C-35.30503861 304.16393677 -30.428885 317.69525652 -19 330 C-4.0245854 344.00623328 14.24298413 345.15275833 33.60058594 345.14526367 C35.15568115 345.14826125 36.71077562 345.15166514 38.26586914 345.15544128 C42.46443421 345.16422474 46.66297886 345.16661701 50.86155224 345.16725707 C53.49195502 345.16797081 56.1223527 345.17011123 58.75275421 345.17275429 C67.95008165 345.1819891 77.14739465 345.18609153 86.34472656 345.18530273 C94.88455482 345.18470249 103.42431981 345.1952486 111.96413207 345.2110464 C119.3241549 345.22417095 126.68415717 345.22948457 134.0441916 345.22884732 C138.42751182 345.22859377 142.81077573 345.23136533 147.19408417 345.24202538 C151.32115624 345.2517895 155.44811913 345.2517293 159.57519531 345.24450874 C161.0786785 345.24347314 162.5821688 345.24576386 164.08563995 345.2518692 C184.05640802 345.32763122 200.75452045 342.85569826 216 329 C225.54706829 318.78752998 231.06924989 306.04132201 231.16113281 291.98242188 C231.17554413 290.19269958 231.17554413 290.19269958 231.19024658 288.36682129 C231.19449646 287.08045776 231.19874634 285.79409424 231.203125 284.46875 C231.20595238 283.80449509 231.20877975 283.14024017 231.21169281 282.45585632 C231.22667528 278.92385466 231.23590422 275.39189356 231.24023438 271.85986328 C231.24457862 268.98180173 231.25831137 266.10404681 231.28125 263.22607422 C231.4404756 242.83389655 231.03289479 222.76743335 225.375 203 C225.12194092 202.10249023 224.86888184 201.20498047 224.6081543 200.28027344 C217.54390633 176.28152894 205.1635049 153.80725934 187.95507812 135.58544922 C184.33473109 131.72836624 181.03101645 127.77895076 177.90045929 123.51509666 C168.07886664 110.30885432 157.73353115 99.7432324 140.93359375 97.05761719 C129.28300565 95.53546137 117.57547694 95.53975682 105.84765625 95.77978516 C100.94841447 95.87614874 96.09114461 95.82155934 91.1953125 95.61572266 C50.47785825 93.90821238 30.49311231 104.7370835 6 137 Z " fill="#000000" transform="translate(158,137)"/>
<path d="M0 0 C9.9 0 19.8 0 30 0 C30 6.27 30 12.54 30 19 C38.58 19 47.16 19 56 19 C56 29.23 56 39.46 56 50 C52.01550781 50.03738281 48.03101563 50.07476562 43.92578125 50.11328125 C40.06675729 50.15949223 36.20783049 50.21072764 32.34887695 50.26245117 C29.66693399 50.29735011 26.98506199 50.3249887 24.30297852 50.34643555 C20.44777567 50.37997146 16.59321525 50.43228927 12.73828125 50.48828125 C11.53915604 50.49467117 10.34003082 50.5010611 9.10456848 50.50764465 C7.98378403 50.52743881 6.86299957 50.54723297 5.70825195 50.56762695 C4.72452103 50.57873001 3.7407901 50.58983307 2.72724915 50.60127258 C-1.11454148 51.16294743 -3.96535708 52.62047611 -6.3125 55.75 C-7.57003977 59.8655847 -7.29995448 63.65020486 -6.375 67.8125 C-4.39417783 70.96380799 -2.584862 71.09022363 1 72 C3.96171576 72.26964652 6.90639723 72.27712726 9.87890625 72.2734375 C11.62305308 72.29374488 13.36719364 72.31459598 15.11132812 72.3359375 C17.82728369 72.35838946 20.54298954 72.37495761 23.2590332 72.38085938 C39.84989203 72.44148186 53.3480907 73.97344741 65.99609375 85.87890625 C74.78886235 95.23895024 78.5202387 106.47278872 78.25390625 119.16796875 C77.08961709 132.15427087 71.39929986 142.1770723 62 151 C52.25077956 158.50060992 42.07098756 160.47029822 30 160 C30 166.27 30 172.54 30 179 C20.1 179 10.2 179 0 179 C0 172.73 0 166.46 0 160 C-10.89 160 -21.78 160 -33 160 C-33 149.77 -33 139.54 -33 129 C-25.52472656 128.94392578 -25.52472656 128.94392578 -17.8984375 128.88671875 C-14.73564292 128.85643197 -11.57290414 128.82527958 -8.41015625 128.79101562 C-3.39342093 128.73674854 1.62320401 128.68563639 6.64013672 128.65356445 C10.6862907 128.62749751 14.73207279 128.58707152 18.77799606 128.53681374 C20.3192519 128.52016786 21.86057202 128.50863939 23.40190506 128.50238609 C25.56601925 128.4927198 27.72918693 128.46463264 29.89306641 128.43237305 C31.12328522 128.42126999 32.35350403 128.41016693 33.6210022 128.39872742 C37.37375648 127.95589611 39.78979351 126.96785581 43 125 C45.42805788 121.63204875 46.25424769 119.02087191 46 114.9375 C45.28384294 110.73711816 43.31783179 108.67044998 40 106 C36.7215164 104.3607582 33.08199175 104.82089435 29.4765625 104.7890625 C27.71483509 104.76095457 25.95311648 104.73228994 24.19140625 104.703125 C21.42269513 104.66217206 18.65414152 104.62528046 15.88525391 104.59863281 C-0.40780735 104.4283323 -14.4166055 103.64309291 -27.06640625 92.1171875 C-36.21633755 82.35462581 -39.46618108 70.87220467 -39.24609375 57.71875 C-38.49815117 46.41650658 -33.46309265 37.0289253 -25.375 29.1875 C-17.62388687 22.59204983 -10.00817954 20.25102244 0 19 C0 12.73 0 6.46 0 0 Z " fill="#000000" transform="translate(241,270)"/>
<path d="M0 0 C3.93467549 1.59247554 6.57577776 4.30662369 9.50292969 7.27587891 C10.03996017 7.81261734 10.57699066 8.34935577 11.1302948 8.90235901 C12.89893859 10.67239283 14.66039824 12.44939857 16.421875 14.2265625 C17.64883466 15.45725344 18.87623749 16.6875027 20.10406494 17.91732788 C23.33067488 21.15156516 26.55123291 24.39176408 29.77056885 27.63323975 C33.05825672 30.94140534 36.35163068 34.24389946 39.64453125 37.546875 C46.10193298 44.02571079 52.55295568 50.51085869 59 57 C55.81597912 60.76672156 52.63838094 64.49002591 49.1328125 67.96484375 C48.47539062 68.61904297 47.81796875 69.27324219 47.140625 69.94726562 C46.14289063 70.93243164 46.14289063 70.93243164 45.125 71.9375 C44.43664062 72.62134766 43.74828125 73.30519531 43.0390625 74.00976562 C41.36166489 75.67551464 39.68196209 77.3388622 38 79 C29.55672523 74.77836261 23.6749948 66.6749948 17 60 C16.67 77.16 16.34 94.32 16 112 C6.1 112 -3.8 112 -14 112 C-14.33 94.84 -14.66 77.68 -15 60 C-21.27 66.27 -27.54 72.54 -34 79 C-37.7654902 77.1172549 -39.64643414 75.58807351 -42.546875 72.6484375 C-43.39121094 71.79765625 -44.23554688 70.946875 -45.10546875 70.0703125 C-45.97816406 69.18085937 -46.85085937 68.29140625 -47.75 67.375 C-49.08224609 66.02921875 -49.08224609 66.02921875 -50.44140625 64.65625 C-52.63216969 62.44192996 -54.81812763 60.22307565 -57 58 C-51.50280742 51.30470134 -45.39046848 45.26303509 -39.2578125 39.16015625 C-38.12273594 38.02694801 -36.98788237 36.89351638 -35.85324097 35.75987244 C-32.88649256 32.79691665 -29.91675198 29.83697807 -26.9463501 26.87768555 C-23.9077114 23.84933144 -20.87195091 20.81809501 -17.8359375 17.78710938 C-11.8934174 11.85526911 -5.947729 5.92661739 0 0 Z " fill="#000000" transform="translate(255,0)"/>
</svg>
