<?xml version="1.0" encoding="UTF-8"?>
<svg version="1.1" xmlns="http://www.w3.org/2000/svg" width="512" height="512">
<path d="M0 0 C1.37788193 0.00081573 1.37788193 0.00081573 2.78359985 0.00164795 C18.39125678 0.04394466 33.38475349 1.07742995 48.6875 4.375 C49.66589844 4.58398926 50.64429688 4.79297852 51.65234375 5.00830078 C80.28781227 11.3543085 109.00741535 22.85173736 132.6875 40.375 C133.64914062 41.06722656 134.61078125 41.75945312 135.6015625 42.47265625 C155.19990983 56.82958511 173.47369973 73.58857334 187.6875 93.375 C188.44933594 94.41527344 189.21117187 95.45554687 189.99609375 96.52734375 C207.32528025 120.82424475 219.89108763 147.94755816 227 176.9375 C227.34550903 178.33379639 227.34550903 178.33379639 227.69799805 179.75830078 C231.66844745 196.89024356 233.24811515 213.94797574 233.125 231.5 C233.12043793 232.89466492 233.12043793 232.89466492 233.11578369 234.31750488 C233.0405356 249.96308841 232.01017853 265.0397565 228.6875 280.375 C228.37401611 281.84042236 228.37401611 281.84042236 228.05419922 283.33544922 C221.71063255 311.96465459 210.22048434 340.70728616 192.6875 364.375 C191.97207031 365.35984375 191.25664062 366.3446875 190.51953125 367.359375 C188.28005026 370.39674336 186.02355787 373.41164496 183.6875 376.375 C182.73689697 377.5815625 182.73689697 377.5815625 181.76708984 378.8125 C176.26544074 385.67283627 170.41003216 392.03961798 164.1875 398.25 C163.47250839 398.96417587 163.47250839 398.96417587 162.74307251 399.69277954 C154.30260584 408.08939234 145.50033488 415.61784344 135.6875 422.375 C135.02540527 422.83874023 134.36331055 423.30248047 133.68115234 423.78027344 C103.28014094 444.91277372 68.3287635 458.25627073 31.6875 463.375 C31.02758057 463.4685376 30.36766113 463.5620752 29.68774414 463.65844727 C4.60258744 466.70330787 -22.66306675 465.68667609 -47.3125 460.375 C-48.78009766 460.06151611 -48.78009766 460.06151611 -50.27734375 459.74169922 C-78.91458954 453.39529764 -107.63133468 441.89708616 -131.3125 424.375 C-132.59235067 423.45298999 -133.87230678 422.53112635 -135.15234375 421.609375 C-142.77308284 416.06005695 -149.92833174 410.24510052 -156.76171875 403.75 C-159.2675536 401.35437318 -159.2675536 401.35437318 -161.9453125 399.28515625 C-164.07191901 397.56913218 -165.74890829 395.89670427 -167.5 393.8125 C-169.4637211 391.50248829 -171.43894722 389.24186245 -173.52734375 387.04296875 C-199.27931951 359.8719214 -216.76988392 323.976051 -225.625 287.8125 C-225.85525879 286.88179688 -226.08551758 285.95109375 -226.32275391 284.9921875 C-230.33947966 267.66397953 -231.87103107 250.43878909 -231.75 232.6875 C-231.74543793 231.25490341 -231.74543793 231.25490341 -231.74078369 229.79336548 C-231.66828618 214.33157937 -230.7234967 199.50623361 -227.3125 184.375 C-227.10351074 183.41513184 -226.89452148 182.45526367 -226.67919922 181.46630859 C-219.96960334 151.37615838 -207.58797338 122.29135706 -189.3125 97.375 C-188.90966797 96.8195752 -188.50683594 96.26415039 -188.09179688 95.69189453 C-182.7559704 88.38367261 -176.96740134 81.62225499 -170.77734375 75.02734375 C-168.81701132 72.91788936 -166.95195317 70.78554058 -165.125 68.5625 C-161.87812598 64.73779247 -158.14013813 61.60259585 -154.3125 58.375 C-153.38695312 57.56160156 -152.46140625 56.74820313 -151.5078125 55.91015625 C-137.6333447 43.78272884 -122.67296275 33.82749589 -106.3125 25.375 C-105.58401855 24.9924707 -104.85553711 24.60994141 -104.10498047 24.21582031 C-71.88112078 7.45741313 -36.1328835 -0.0809119 0 0 Z M-53.3125 23.375 C-54.47869873 23.65102051 -54.47869873 23.65102051 -55.66845703 23.93261719 C-108.77607324 36.99523159 -155.84698839 74.36997077 -183.9375 120.75 C-196.08140478 141.25128546 -205.0808913 163.10810868 -210.3125 186.375 C-210.52422852 187.3139209 -210.73595703 188.2528418 -210.95410156 189.22021484 C-217.04784398 217.7526427 -216.94286641 249.9865362 -210.3125 278.375 C-210.09819336 279.3124707 -209.88388672 280.24994141 -209.66308594 281.21582031 C-196.58879046 336.84342683 -161.33796962 385.79472477 -112.80102539 415.87133789 C-60.86340685 447.32785702 -1.67177523 455.09291346 57.11083984 440.78515625 C110.01568121 427.43522891 157.36158006 390.31737475 185.375 343.9375 C215.27836231 293.23695914 223.98146319 233.74170057 209.30908203 176.65576172 C206.09347776 164.78234563 201.90373005 153.50531735 196.6875 142.375 C196.20627686 141.33424316 196.20627686 141.33424316 195.71533203 140.27246094 C171.09521523 87.48112872 125.65581095 48.22973257 71.32470703 28.29785156 C30.7675798 14.10548525 -11.76142379 13.53492621 -53.3125 23.375 Z " fill="#000000" transform="translate(255.3125,23.625)"/>
<path d="M0 0 C1.87484441 1.79278767 3.7184145 3.61268106 5.5625 5.4375 C6.24054688 6.05496094 6.91859375 6.67242187 7.6171875 7.30859375 C25.3344519 23.7265921 29.77486941 47.46837255 32.39822388 70.23910522 C34.66373774 89.78060173 37.28320239 109.23768888 40.625 128.625 C40.79197388 129.59443542 40.95894775 130.56387085 41.13098145 131.56268311 C43.38262754 144.53055745 45.85283075 157.44129125 48.83618164 170.26245117 C51.74817267 182.90971817 51.74817267 182.90971817 49.31347656 188.1003418 C44.8034786 191.93191887 39.85828682 191.05057052 34.140625 190.92578125 C32.92550232 190.91870651 31.71037964 190.91163177 30.45843506 190.90434265 C26.57583158 190.87634506 22.69466792 190.81359096 18.8125 190.75 C16.1810104 190.72492433 13.54949821 190.7021099 10.91796875 190.68164062 C4.46565424 190.6265004 -1.98582003 190.54281815 -8.4375 190.4375 C-8.56764496 191.05274536 -8.69778992 191.66799072 -8.83187866 192.30187988 C-9.00643585 193.11040405 -9.18099304 193.91892822 -9.36083984 194.75195312 C-9.5322348 195.55282349 -9.70362976 196.35369385 -9.88021851 197.17883301 C-12.44510035 207.57432259 -20.34361558 217.10411447 -29.25 222.75 C-30.96250629 223.6772847 -32.69199467 224.57393421 -34.4375 225.4375 C-35.22253906 225.85128906 -36.00757813 226.26507813 -36.81640625 226.69140625 C-46.9544512 231.24480046 -61.06344401 231.37200901 -71.5625 227.8125 C-73.21087502 227.07073124 -74.83793569 226.27937595 -76.4375 225.4375 C-77.283125 225.025 -78.12875 224.6125 -79 224.1875 C-90.378474 218.08197736 -97.16440449 208.46321164 -101.4375 196.4375 C-101.79289525 194.44130228 -102.12940027 192.44154233 -102.4375 190.4375 C-103.45774261 190.45415459 -103.45774261 190.45415459 -104.49859619 190.47114563 C-111.57103355 190.58167322 -118.64322605 190.65714045 -125.71630859 190.7121582 C-128.35670942 190.73731879 -130.9970405 190.77145063 -133.63720703 190.81469727 C-137.43018797 190.87527663 -141.22224898 190.9036953 -145.015625 190.92578125 C-146.78924408 190.96449089 -146.78924408 190.96449089 -148.59869385 191.00398254 C-156.68238787 191.00675574 -156.68238787 191.00675574 -160.21386719 188.34448242 C-162.57905195 182.72551693 -161.42950761 177.54414673 -160.15234375 171.7578125 C-159.86938706 170.44512047 -159.58668479 169.13237357 -159.30419922 167.81958008 C-159.1530365 167.12893463 -159.00187378 166.43828918 -158.84613037 165.72671509 C-152.01234983 134.33461672 -147.08721565 102.67837783 -143.21369934 70.79647827 C-142.62441589 65.94983916 -142.03029229 61.10401954 -141.40625 56.26171875 C-141.25994141 55.11276123 -141.11363281 53.96380371 -140.96289062 52.7800293 C-137.3419352 29.74355127 -124.06102423 9.28320485 -105.578125 -4.73046875 C-102.91789794 -6.47191797 -100.232347 -8.04746168 -97.4375 -9.5625 C-96.48230469 -10.09359375 -95.52710938 -10.6246875 -94.54296875 -11.171875 C-63.90364052 -27.39505797 -25.80688488 -23.80522039 0 0 Z M-105.4375 18.4375 C-120.09792536 33.33063053 -123.76906391 50.34148907 -125.97460938 70.36523438 C-126.92503255 78.83887409 -128.02094176 87.29524054 -129.125 95.75 C-129.24942474 96.70479248 -129.37384949 97.65958496 -129.50204468 98.64331055 C-132.02150247 117.78517435 -135.39627852 136.73440512 -139.14442444 155.67095947 C-140.37185608 161.913815 -141.38981148 168.1513689 -142.4375 174.4375 C-85.0175 174.4375 -27.5975 174.4375 31.5625 174.4375 C29.9125 165.5275 28.2625 156.6175 26.5625 147.4375 C25.37635827 140.89864242 24.19565623 134.36052003 23.0625 127.8125 C22.91664459 126.97061127 22.77078918 126.12872253 22.62051392 125.26132202 C19.71368025 108.34924622 17.5609204 91.37691507 15.60546875 74.33203125 C12.58689028 48.0584002 6.3278942 27.87542427 -14.1875 10.125 C-43.44374817 -12.20091275 -80.02083081 -6.63099564 -105.4375 18.4375 Z M-84.4375 190.4375 C-82.79069636 198.67151818 -77.30742128 204.71534854 -70.4375 209.4375 C-63.25579927 213.73355123 -53.76032472 213.77018935 -45.81640625 211.78125 C-37.35621825 208.37957996 -30.20778161 201.7756228 -26.4375 193.4375 C-26.4375 192.4475 -26.4375 191.4575 -26.4375 190.4375 C-45.5775 190.4375 -64.7175 190.4375 -84.4375 190.4375 Z " fill="#000000" transform="translate(311.4375,162.5625)"/>
<path d="M0 0 C1.05026367 -0.00478363 2.10052734 -0.00956726 3.18261719 -0.01449585 C5.40170795 -0.0178962 7.62084872 -0.00868443 9.83984375 0.01220703 C13.23811451 0.0389689 16.63308208 0.01246193 20.03125 -0.01953125 C22.1875073 -0.01622718 24.34376254 -0.009821 26.5 0 C27.51674805 -0.01012115 28.53349609 -0.02024231 29.58105469 -0.03067017 C36.60163844 0.08607598 36.60163844 0.08607598 39.890625 3.01806641 C41.56465337 6.27652895 41.85285038 8.04696024 41.25 11.6640625 C39.890625 14.31005859 39.890625 14.31005859 37.25 16.6640625 C33.67476725 17.43011268 30.14487891 17.36440772 26.5 17.328125 C24.92460449 17.33530045 24.92460449 17.33530045 23.31738281 17.34262085 C21.09829205 17.3460212 18.87915128 17.33680943 16.66015625 17.31591797 C13.26188549 17.2891561 9.86691792 17.31566307 6.46875 17.34765625 C4.3124927 17.34435218 2.15623746 17.337946 0 17.328125 C-1.01674805 17.33824615 -2.03349609 17.34836731 -3.08105469 17.35879517 C-10.10163844 17.24204902 -10.10163844 17.24204902 -13.390625 14.31005859 C-15.06465337 11.05159605 -15.35285038 9.28116476 -14.75 5.6640625 C-11.41493345 -0.82757745 -6.52200579 -0.0649229 0 0 Z " fill="#000000" transform="translate(242.75,119.3359375)"/>
</svg>
