<?xml version="1.0" encoding="UTF-8"?>
<svg version="1.1" xmlns="http://www.w3.org/2000/svg" width="512" height="512">
<path d="M0 0 C1.55970775 -0.00418158 3.11941245 -0.00966359 4.6791116 -0.01631981 C8.93063737 -0.03068503 13.18196781 -0.02655787 17.43350387 -0.019153 C22.03212375 -0.01440138 26.63070258 -0.02694872 31.22930908 -0.03717041 C40.22496431 -0.05432474 49.22054958 -0.05520543 58.21621691 -0.04995751 C65.53128889 -0.04590834 72.84634028 -0.04736822 80.16141129 -0.05270576 C81.20440562 -0.05345419 82.24739996 -0.05420261 83.32200018 -0.05497371 C85.44116028 -0.05650526 87.56032036 -0.05804361 89.67948045 -0.05958868 C109.53115404 -0.07330151 129.38278817 -0.06788456 149.23446085 -0.05640347 C167.3750799 -0.04647209 185.51559695 -0.05941229 203.65620027 -0.08333766 C222.30754954 -0.10775029 240.95885134 -0.11733122 259.61021626 -0.11068493 C270.07171605 -0.10719756 280.53313742 -0.10939293 290.99462509 -0.12693596 C299.90000159 -0.14168499 308.80524441 -0.14225809 317.71061836 -0.12486505 C322.2492479 -0.11637498 326.78763893 -0.11415653 331.3262558 -0.1295166 C335.49012904 -0.14343335 339.653561 -0.13851175 343.81740917 -0.11927737 C345.31458453 -0.11553834 346.81179584 -0.11837803 348.30893897 -0.12888902 C361.51414651 -0.21492332 373.86742296 1.96029549 385.62478638 8.26268005 C386.29380981 8.61000183 386.96283325 8.95732361 387.65213013 9.31517029 C392.54278943 11.90915401 396.98095693 14.7754108 401.18728638 18.38768005 C401.82537231 18.88396912 402.46345825 19.38025818 403.12088013 19.8915863 C411.80819388 26.91933524 417.75198046 35.86514944 422.56228638 45.82518005 C422.88390747 46.47986267 423.20552856 47.13454529 423.53689575 47.80906677 C428.75657038 59.17813609 429.62934115 70.87371181 429.57496643 83.20039368 C429.57914801 84.76010142 429.58463002 86.31980613 429.59128624 87.87950528 C429.60565146 92.13103104 429.6015243 96.38236149 429.59411943 100.63389754 C429.58936781 105.23251743 429.60191515 109.83109626 429.61213684 114.42970276 C429.62929117 123.42535798 429.63017186 132.42094325 429.62492394 141.41661058 C429.62087477 148.73168257 429.62233465 156.04673395 429.6276722 163.36180496 C429.62842062 164.4047993 429.62916904 165.44779363 429.62994014 166.52239386 C429.63147169 168.64155395 429.63301004 170.76071404 429.63455511 172.87987413 C429.64826794 192.73154771 429.64285099 212.58318184 429.6313699 232.43485452 C429.62143852 250.57547358 429.63437872 268.71599063 429.65830409 286.85659395 C429.68271672 305.50794322 429.69229765 324.15924502 429.68565136 342.81060994 C429.68216399 353.27210973 429.68435936 363.7335311 429.70190239 374.19501877 C429.71665142 383.10039526 429.71722452 392.00563809 429.69983148 400.91101204 C429.69134141 405.44964158 429.68912296 409.98803261 429.70448303 414.52664948 C429.71839978 418.69052272 429.71347818 422.85395468 429.6942438 427.01780285 C429.69050477 428.51497821 429.69334446 430.01218951 429.70385545 431.50933264 C429.78988975 444.71454019 427.61467094 457.06781664 421.31228638 468.82518005 C420.9649646 469.49420349 420.61764282 470.16322693 420.25979614 470.8525238 C417.66581242 475.7431831 414.79955563 480.1813506 411.18728638 484.38768005 C410.69099731 485.02576599 410.19470825 485.66385193 409.68338013 486.3212738 C397.93434857 500.84477546 380.24818389 508.98589362 362.18728638 512.38768005 C356.82654854 512.90627227 351.51166187 512.93082179 346.13406372 512.89561462 C344.57262786 512.90023575 343.01119637 512.90659672 341.44977379 512.9145236 C337.20270727 512.93107394 332.9560047 512.92303649 328.70893764 512.91057873 C324.11171052 512.90147136 319.5145429 512.91552596 314.91732788 512.92649841 C305.9286074 512.94422791 296.94002098 512.94046857 287.95129538 512.92884785 C280.64198811 512.9197918 273.33271826 512.9185989 266.02340698 512.92294312 C264.98068363 512.92355605 263.93796027 512.92416898 262.86363924 512.92480049 C260.7449622 512.92607947 258.62628518 512.92737632 256.50760818 512.92869085 C236.66926346 512.94008033 216.83099284 512.92700859 196.99266028 512.90548939 C179.99304544 512.8876199 162.99353988 512.89072447 145.993927 512.90916443 C126.223605 512.9306 106.45334783 512.93898185 86.68301582 512.92671537 C84.57239915 512.92544126 82.46178247 512.92418377 80.35116577 512.92294312 C78.7937185 512.92201746 78.7937185 512.92201746 77.20480764 512.92107311 C69.90946156 512.91762827 62.61415682 512.92342984 55.31881714 512.93286133 C46.42080174 512.94411258 37.52292737 512.94097574 28.624928 512.91973835 C24.09033992 512.9092699 19.55598647 512.90503383 15.02140045 512.91833496 C10.86130005 512.93035252 6.70164928 512.92354414 2.54158902 512.90242475 C1.04582255 512.89799798 -0.44998281 512.90013528 -1.94572377 512.9099279 C-15.14481563 512.98963723 -27.49842657 510.81207548 -39.25021362 504.51268005 C-39.91923706 504.16535828 -40.5882605 503.8180365 -41.27755737 503.46018982 C-46.16821667 500.8662061 -50.60638417 497.99994931 -54.81271362 494.38768005 C-55.76984253 493.64324646 -55.76984253 493.64324646 -56.74630737 492.8837738 C-65.43362112 485.85602486 -71.37740771 476.91021067 -76.18771362 466.95018005 C-76.50933472 466.29549744 -76.83095581 465.64081482 -77.162323 464.96629333 C-82.38199763 453.59722401 -83.2547684 441.90164829 -83.20039368 429.57496643 C-83.20457526 428.01525868 -83.21005727 426.45555398 -83.21671349 424.89585483 C-83.23107871 420.64432906 -83.22695154 416.39299862 -83.21954668 412.14146256 C-83.21479506 407.54284268 -83.2273424 402.94426385 -83.23756409 398.34565735 C-83.25471842 389.35000212 -83.25559911 380.35441685 -83.25035118 371.35874952 C-83.24630202 364.04367754 -83.2477619 356.72862615 -83.25309944 349.41355515 C-83.25384786 348.37056081 -83.25459629 347.32756647 -83.25536739 346.25296625 C-83.25689894 344.13380615 -83.25843729 342.01464607 -83.25998235 339.89548598 C-83.27369519 320.04381239 -83.26827823 300.19217827 -83.25679714 280.34050559 C-83.24686577 262.19988653 -83.25980597 244.05936948 -83.28373133 225.91876616 C-83.30814397 207.26741689 -83.3177249 188.61611509 -83.31107861 169.96475017 C-83.30759124 159.50325038 -83.3097866 149.04182901 -83.32732964 138.58034134 C-83.34207867 129.67496484 -83.34265177 120.76972202 -83.32525872 111.86434807 C-83.31676865 107.32571853 -83.31455021 102.7873275 -83.32991028 98.24871063 C-83.34382703 94.08483739 -83.33890543 89.92140543 -83.31967104 85.75755726 C-83.31593201 84.2603819 -83.31877171 82.76317059 -83.32928269 81.26602747 C-83.415317 68.06081992 -81.24009819 55.70754347 -74.93771362 43.95018005 C-74.59039185 43.28115662 -74.24307007 42.61213318 -73.88522339 41.9228363 C-71.29123967 37.032177 -68.42498288 32.5940095 -64.81271362 28.38768005 C-64.31642456 27.74959412 -63.8201355 27.11150818 -63.30880737 26.4540863 C-56.28105843 17.76677255 -47.33524424 11.82298597 -37.37521362 7.01268005 C-36.72053101 6.69105896 -36.06584839 6.36943787 -35.3913269 6.03807068 C-24.02225758 0.81839605 -12.32668186 -0.05437472 0 0 Z M-41.21896362 48.4853363 C-49.97826759 58.94068197 -51.85986924 71.04785867 -52.81271362 84.38768005 C96.34728638 84.38768005 245.50728638 84.38768005 399.18728638 84.38768005 C398.11736816 69.40882504 396.45220452 58.47113693 386.18728638 47.38768005 C385.35197388 46.43441833 385.35197388 46.43441833 384.49978638 45.4618988 C375.28709516 35.50280899 362.41380253 31.28282839 349.18728638 30.38768005 C344.36343544 30.24865042 339.54109223 30.24802891 334.71566772 30.25396729 C333.26508454 30.25209616 331.81450186 30.24979426 330.36391997 30.24710196 C326.40018227 30.24101485 322.43646575 30.24111389 318.47272444 30.24229634 C314.18901721 30.24250113 309.90531664 30.23697415 305.62161255 30.23223877 C297.23751302 30.22394873 288.85342052 30.22118468 280.46931723 30.22062639 C273.65140609 30.22015047 266.83349726 30.21809192 260.01558685 30.21492577 C240.66677645 30.20612385 221.31797158 30.20150569 201.96915916 30.20225624 C200.40602373 30.20231617 200.40602373 30.20231617 198.81130981 30.20237732 C197.76794078 30.2024182 196.72457174 30.20245908 195.64958546 30.2025012 C178.74323634 30.20290759 161.83690949 30.19333867 144.93056682 30.17923895 C127.55285035 30.16486097 110.17514474 30.15796954 92.79742217 30.15883273 C83.048545 30.1591642 73.29969119 30.15643913 63.5508194 30.14565468 C55.25033829 30.13653098 46.94989114 30.13438978 38.64940718 30.1411641 C34.41882285 30.14441981 30.18830359 30.14452044 25.95772552 30.13581085 C22.07639862 30.12790282 18.19518794 30.12942078 14.31386372 30.13809498 C12.91822912 30.13962055 11.52258565 30.13784989 10.1269615 30.13223491 C-10.37311575 30.05529457 -26.66510147 33.36916584 -41.21896362 48.4853363 Z M-52.81271362 115.38768005 C-52.85396362 167.40393005 -52.89521362 219.42018005 -52.93771362 273.01268005 C-52.95592163 289.43485291 -52.97412964 305.85702576 -52.9928894 322.77684021 C-52.99957842 337.50198322 -52.99957842 337.50198322 -53.00360107 352.22712708 C-53.00546379 358.78402647 -53.01279019 365.34089167 -53.02386475 371.89778137 C-53.03662933 379.46652004 -53.04237759 387.03522599 -53.03960352 394.6039755 C-53.03840288 398.47258202 -53.04025644 402.34111546 -53.05114388 406.20970845 C-53.06276105 410.36304412 -53.05867845 414.51622259 -53.05322266 418.66957092 C-53.05904799 419.86187506 -53.06487331 421.05417919 -53.07087517 422.28261375 C-53.01317339 438.69372471 -50.6928974 452.65786503 -39.81271362 465.38768005 C-39.35896362 465.9703363 -38.90521362 466.55299255 -38.43771362 467.15330505 C-34.70952858 471.46401901 -30.23526104 474.08085731 -25.25021362 476.70018005 C-24.63226929 477.03791443 -24.01432495 477.3756488 -23.37765503 477.72361755 C-12.55874186 483.0936684 0.34047486 482.68154971 12.1399231 482.64164734 C13.59395948 482.64395792 15.04799469 482.64713841 16.50202751 482.65110183 C20.45675447 482.65937653 24.4113837 482.65535828 28.3661108 482.64912939 C32.6470242 482.6445756 36.92792163 482.65160308 41.20883179 482.65708923 C49.57902489 482.66595382 57.94918199 482.66407435 66.31937647 482.65826395 C73.12575226 482.65373588 79.93211801 482.6531395 86.73849487 482.65531158 C88.19497714 482.65577128 88.19497714 482.65577128 89.68088329 482.65624027 C91.65380558 482.65687976 93.62672786 482.65752819 95.59965014 482.65818545 C114.07307133 482.66388015 132.54647262 482.65734437 151.01989055 482.64658472 C166.84978765 482.63765 182.67965542 482.63920228 198.509552 482.64842224 C216.91965022 482.65914009 235.32973102 482.66333091 253.73983192 482.65719771 C255.70524724 482.65656066 257.67066256 482.65593191 259.63607788 482.65531158 C260.6029449 482.65500303 261.56981191 482.65469448 262.56597793 482.65437658 C269.35932769 482.65265418 276.15266636 482.65555491 282.9460144 482.66027069 C291.23176311 482.66589637 299.51747396 482.66432771 307.80321836 482.6537092 C312.02572684 482.64847514 316.24817232 482.64635685 320.47068024 482.65300751 C324.34445004 482.65901633 328.21809912 482.65561153 332.09185815 482.6450524 C334.13873263 482.64179976 336.18561565 482.64824495 338.232481 482.65516686 C354.96400802 482.58509824 369.18000615 480.50501358 382.18728638 469.38768005 C382.76994263 468.93393005 383.35259888 468.48018005 383.95291138 468.01268005 C388.26362533 464.28449501 390.88046364 459.81022747 393.49978638 454.82518005 C393.83752075 454.20723572 394.17525513 453.58929138 394.52322388 452.95262146 C399.70890407 442.50515544 399.48356196 430.08363599 399.42779541 418.66957092 C399.42950745 417.36624313 399.43121948 416.06291534 399.4329834 414.72009277 C399.43742029 411.13886733 399.42951049 407.55776392 399.41943184 403.97655395 C399.41063096 400.04166879 399.41362547 396.1067883 399.41506767 392.17189598 C399.41612639 384.55090178 399.40693682 376.92995512 399.39406502 369.3089731 C399.37960966 360.48453686 399.37807249 351.66012877 399.37649536 342.8356781 C399.3660141 319.56133794 399.33809168 296.28700827 399.31228638 273.01268005 C399.27103638 220.99643005 399.22978638 168.98018005 399.18728638 115.38768005 C250.02728638 115.38768005 100.86728638 115.38768005 -52.81271362 115.38768005 Z " fill="#000000" transform="translate(82.81271362304688,-0.3876800537109375)"/>
<path d="M0 0 C1.58661272 -0.00576172 1.58661272 -0.00576172 3.20527822 -0.01163983 C4.37140431 -0.01077335 5.5375304 -0.00990687 6.73899364 -0.00901413 C7.97463989 -0.01198525 9.21028613 -0.01495637 10.4833762 -0.01801753 C13.91970667 -0.02520627 17.35598715 -0.0278775 20.79232156 -0.028615 C24.49590038 -0.03046429 28.19946834 -0.03801098 31.90304089 -0.04475021 C40.00424591 -0.05833904 48.10544599 -0.06435907 56.20666051 -0.06876087 C61.26367533 -0.07152228 66.32068823 -0.07575943 71.37770176 -0.08026505 C85.37511894 -0.09245826 99.37253459 -0.10275758 113.36995697 -0.10614014 C114.26602844 -0.1063597 115.16209992 -0.10657927 116.08532507 -0.10680549 C116.98355726 -0.10702377 117.88178944 -0.10724204 118.80724078 -0.10746694 C120.6274432 -0.1079104 122.44764561 -0.10835697 124.26784801 -0.10880661 C125.17073392 -0.10902804 126.07361983 -0.10924947 127.00386592 -0.10947761 C141.63662744 -0.11342634 156.26933918 -0.13088239 170.90208147 -0.15416613 C185.92007221 -0.17787029 200.93803796 -0.19034155 215.95604771 -0.19150805 C224.39022735 -0.19242533 232.82434213 -0.19819072 241.25850391 -0.21632767 C248.43987018 -0.23171601 255.62115154 -0.23685661 262.80253116 -0.22858956 C266.4670665 -0.22467859 270.13143079 -0.2256343 273.79594517 -0.23964691 C277.76775816 -0.25469581 281.73932946 -0.24653255 285.71116161 -0.23606491 C287.4503125 -0.24814952 287.4503125 -0.24814952 289.22459775 -0.26047826 C294.84184942 -0.22573912 299.12450911 -0.1618722 303.91555309 3.13142776 C308.58486271 8.30552761 309.27842934 11.52764486 309.18899059 18.36970901 C308.79935448 22.3050338 307.6290672 24.27875909 304.91555309 27.13142776 C298.66260674 31.74209886 293.27194135 31.6984442 285.66251659 31.63936234 C284.42894733 31.6456023 283.19537807 31.65184226 281.92442793 31.65827131 C278.51210039 31.6714425 275.1006566 31.66673436 271.68838322 31.65432644 C268.00389835 31.64526422 264.31948988 31.65925152 260.63502026 31.67024612 C253.42155416 31.68802402 246.20825464 31.6841945 238.99478204 31.67259556 C233.13115897 31.66355793 227.26758254 31.66233867 221.40395451 31.66669083 C220.56905362 31.66730376 219.73415274 31.66791669 218.87395183 31.6685482 C217.17779441 31.66982712 215.481637 31.67112397 213.7854796 31.67243856 C197.88365014 31.6838424 181.98191295 31.67073411 166.08009862 31.6492371 C152.44097538 31.63136956 138.80198833 31.63446774 125.16286755 31.65291214 C109.31906261 31.67432798 93.47533855 31.68274033 77.63152117 31.67046309 C75.9413366 31.66918891 74.25115203 31.66793143 72.56096745 31.66669083 C71.72939676 31.66607372 70.89782607 31.66545662 70.04105626 31.66482082 C64.18621954 31.66136982 58.33143418 31.66719095 52.47660542 31.67660904 C45.3389032 31.68783848 38.2013769 31.68476931 31.06369478 31.66348606 C27.42315258 31.65298775 23.78290345 31.64883267 20.14236355 31.66208267 C16.19326843 31.67623806 12.24465113 31.65931336 8.29557323 31.63936234 C7.14858442 31.64828522 6.0015956 31.65720811 4.81984955 31.66640139 C-1.57030857 31.60373134 -6.84593249 31.05776999 -12.08444691 27.13142776 C-15.7593937 22.91045998 -16.68758514 18.81543707 -16.40475941 13.27205276 C-15.71795843 8.68221206 -13.94623291 5.92857982 -10.58444691 2.81892776 C-6.95596116 0.36969989 -4.2725439 0.00581378 0 0 Z " fill="#000000" transform="translate(88.08444690704346,217.86857223510742)"/>
<path d="M0 0 C0.97004022 -0.00445784 1.94008045 -0.00891569 2.93951583 -0.01350862 C4.54177122 -0.01323207 4.54177122 -0.01323207 6.17639542 -0.01294994 C7.87567322 -0.01846498 7.87567322 -0.01846498 9.60927987 -0.02409142 C13.42545914 -0.03515126 17.2416112 -0.03897599 21.05780411 -0.04278088 C23.7857728 -0.04851057 26.51373739 -0.05567738 29.24170303 -0.0626936 C37.44225831 -0.08245664 45.64281482 -0.09252375 53.84338796 -0.10142139 C57.70473967 -0.10580431 61.56609002 -0.11117109 65.42744064 -0.11641026 C78.26248642 -0.13342193 91.09753135 -0.14791648 103.93258667 -0.155159 C107.26338833 -0.1570689 110.59418998 -0.15898923 113.92499161 -0.16094494 C114.75284984 -0.16142868 115.58070807 -0.16191242 116.43365291 -0.16241082 C129.84681831 -0.17071256 143.25989458 -0.19605215 156.67302105 -0.22852562 C170.44235272 -0.26158986 184.21163909 -0.27960716 197.98101068 -0.28280324 C205.71269652 -0.28496886 213.44425234 -0.29372519 221.17589951 -0.31926441 C227.7599805 -0.34096272 234.34389989 -0.34902615 240.92801258 -0.33929763 C244.28699405 -0.3347503 247.64537149 -0.33884149 251.00435257 -0.35605907 C254.64759509 -0.37369046 258.28998897 -0.36671386 261.93323135 -0.35352612 C262.99247873 -0.36449536 264.05172611 -0.37546461 265.14307189 -0.38676625 C271.41328202 -0.3318906 275.21876721 0.38124853 280.30878067 4.13422108 C283.84961796 8.38284476 284.98469879 12.40722313 284.68378067 17.92718983 C283.94090209 22.29933982 282.34861325 25.63885106 278.71493721 28.3026433 C272.79546085 31.49799748 267.55982144 31.69882127 260.9225502 31.64215565 C259.79429888 31.64839561 258.66604755 31.65463557 257.5036068 31.66106462 C253.7327214 31.67698661 249.96248308 31.66439271 246.19159317 31.6517992 C243.48420253 31.65502073 240.77683916 31.66419905 238.06946182 31.67303944 C231.48511994 31.69080009 224.90096073 31.6869957 218.31661177 31.67538887 C212.96407164 31.66634512 207.6115826 31.66513461 202.25903702 31.66948414 C201.49643102 31.67009707 200.73382502 31.67071 199.94810975 31.67134151 C198.39875585 31.67262045 196.84940198 31.6739173 195.30004811 31.67523187 C180.78120051 31.68663048 166.26245403 31.67353529 151.74362302 31.65203041 C139.2932864 31.63416006 126.84309897 31.63726437 114.39276505 31.65570545 C99.92489225 31.67712491 85.45710801 31.68553191 70.98922157 31.6732564 C69.44565584 31.67198224 67.90209009 31.67072475 66.35852432 31.66948414 C65.59911549 31.66886704 64.83970665 31.66824993 64.05728543 31.66761413 C58.71289319 31.66416445 53.36855726 31.66998132 48.02417374 31.67940235 C41.50865217 31.69063568 34.9933233 31.6875544 28.47782373 31.66627938 C25.15515736 31.65578648 21.83307702 31.65377926 18.51037216 31.66487598 C14.90493173 31.67580679 11.30039406 31.66209576 7.69501114 31.64215565 C6.12729808 31.65553998 6.12729808 31.65553998 4.52791405 31.6691947 C-1.63706364 31.60306345 -6.61991274 30.85191824 -11.69121933 27.13422108 C-15.37037097 22.92005515 -16.29410785 18.81333602 -16.01153183 13.27484608 C-15.32473085 8.68500537 -13.55300533 5.93137313 -10.19121933 2.82172108 C-6.70046862 0.46546435 -4.11045313 0.00875673 0 0 Z " fill="#000000" transform="translate(87.69121932983398,337.86577892303467)"/>
<path d="M0 0 C1.30353263 -0.00668677 1.30353263 -0.00668677 2.63339925 -0.01350862 C4.06639839 -0.01323207 4.06639839 -0.01323207 5.52834702 -0.01294994 C6.54277587 -0.01662663 7.55720472 -0.02030332 8.60237384 -0.02409142 C12.01778711 -0.03514648 15.43316998 -0.03897518 18.84859848 -0.04278088 C21.29085512 -0.0490441 23.73311081 -0.05569077 26.17536545 -0.0626936 C33.51570127 -0.08193314 40.85602901 -0.09252326 48.19638264 -0.10142139 C51.65327807 -0.10580501 55.11017197 -0.11117161 58.56706619 -0.11641026 C70.05874056 -0.13342158 81.55041397 -0.1479159 93.042099 -0.155159 C96.02398556 -0.15706888 99.00587211 -0.15898922 101.98775864 -0.16094494 C103.09945424 -0.16167055 103.09945424 -0.16167055 104.23360834 -0.16241082 C116.24030925 -0.17071171 128.24691055 -0.19605003 140.25356796 -0.22852562 C152.58100403 -0.26159699 164.90838946 -0.2796078 177.23587012 -0.28280324 C184.15713793 -0.28496821 191.07826045 -0.29371497 197.99948502 -0.31926441 C204.50999482 -0.34324227 211.0202901 -0.3467966 217.53085136 -0.33650303 C219.9209575 -0.33600646 222.31107632 -0.34236223 224.70114326 -0.35605907 C227.96343989 -0.37370903 231.22479051 -0.36670504 234.48708725 -0.35352612 C235.43349713 -0.36449536 236.379907 -0.37546461 237.35499597 -0.38676625 C243.3422877 -0.32834776 246.87186039 0.6112672 251.76168442 4.13422108 C255.30745925 8.3752208 256.4372988 12.41279481 256.13668442 17.92718983 C255.39240984 22.30755582 253.80447935 25.67218393 250.12913561 28.3026433 C244.51444172 31.28496506 239.76685248 31.70236016 233.4764061 31.64215565 C231.96166364 31.65151559 231.96166364 31.65151559 230.41632032 31.66106462 C227.04617529 31.67696801 223.67675618 31.66440029 220.30660629 31.6517992 C217.88493555 31.65722147 215.46326811 31.66434472 213.0416069 31.67303944 C207.15509996 31.68937181 201.26878024 31.68700012 195.38227856 31.67538887 C190.59657502 31.66634121 185.81092861 31.66513629 181.02521896 31.66948414 C180.34309844 31.67009707 179.66097792 31.67071 178.95818707 31.67134151 C177.57230618 31.67262046 176.1864253 31.67391731 174.80054444 31.67523187 C161.81681076 31.68662759 148.83319021 31.67353985 135.84947509 31.65203041 C124.71810412 31.63416031 113.58690003 31.6372647 102.45553207 31.65570545 C89.51704999 31.67713004 76.57866696 31.68552905 63.64016962 31.6732564 C62.25949639 31.67198225 60.87882314 31.67072477 59.49814987 31.66948414 C58.81890023 31.66886704 58.1396506 31.66824993 57.43981764 31.66761413 C52.66198607 31.66416598 47.88421753 31.669978 43.10639572 31.67940235 C36.67129274 31.69181717 30.23643042 31.68292978 23.80135536 31.65982533 C21.44070521 31.65453968 19.08002853 31.65604948 16.71938896 31.66487598 C13.49489001 31.67582022 10.2713977 31.66208018 7.04696274 31.64215565 C6.1146582 31.65107853 5.18235366 31.66000142 4.22179747 31.6691947 C-1.67363616 31.59862359 -6.37199091 30.61707063 -11.23831558 27.13422108 C-14.92209321 22.92758375 -15.84092839 18.80793209 -15.55862808 13.27484608 C-14.8718271 8.68500537 -13.10010159 5.93137313 -9.73831558 2.82172108 C-6.41276124 0.57697189 -3.91968569 0.00932924 0 0 Z " fill="#000000" transform="translate(87.23831558227539,277.86577892303467)"/>
<path d="M0 0 C3.94090823 2.59366751 5.77919269 6.07508176 7.1875 10.5 C7.90848905 15.54692336 7.00072151 19.29771527 4.58203125 23.69921875 C1.28681396 27.9543873 -3.15463006 29.26316144 -8.3125 30 C-13.37639549 29.27658636 -17.66051872 27.82679209 -21.20703125 23.9921875 C-24.20016944 19.44430968 -24.72496202 14.81485607 -23.8125 9.5 C-22.43103487 5.33925592 -20.27614108 2.49093337 -16.625 0.0625 C-11.21534177 -2.61336949 -5.43896952 -2.60884191 0 0 Z " fill="#000000" transform="translate(172.8125,43.5)"/>
<path d="M0 0 C3.94090823 2.59366751 5.77919269 6.07508176 7.1875 10.5 C7.90848905 15.54692336 7.00072151 19.29771527 4.58203125 23.69921875 C1.28681396 27.9543873 -3.15463006 29.26316144 -8.3125 30 C-13.37639549 29.27658636 -17.66051872 27.82679209 -21.20703125 23.9921875 C-24.20016944 19.44430968 -24.72496202 14.81485607 -23.8125 9.5 C-22.43103487 5.33925592 -20.27614108 2.49093337 -16.625 0.0625 C-11.21534177 -2.61336949 -5.43896952 -2.60884191 0 0 Z " fill="#000000" transform="translate(132.8125,43.5)"/>
<path d="M0 0 C3.94090823 2.59366751 5.77919269 6.07508176 7.1875 10.5 C7.90848905 15.54692336 7.00072151 19.29771527 4.58203125 23.69921875 C1.28681396 27.9543873 -3.15463006 29.26316144 -8.3125 30 C-13.37639549 29.27658636 -17.66051872 27.82679209 -21.20703125 23.9921875 C-24.20016944 19.44430968 -24.72496202 14.81485607 -23.8125 9.5 C-22.43103487 5.33925592 -20.27614108 2.49093337 -16.625 0.0625 C-11.21534177 -2.61336949 -5.43896952 -2.60884191 0 0 Z " fill="#000000" transform="translate(92.8125,43.5)"/>
</svg>
