<?xml version="1.0" encoding="UTF-8"?>
<svg version="1.1" xmlns="http://www.w3.org/2000/svg" width="512" height="512">
<path d="M0 0 C1.10924371 -0.00453111 2.21848742 -0.00906223 3.36134458 -0.01373065 C7.06200453 -0.0263466 10.76251678 -0.02475606 14.4631958 -0.02310181 C17.12320497 -0.0290888 19.78320277 -0.03583862 22.44320679 -0.04345703 C28.90938769 -0.06002482 35.37553211 -0.06556466 41.84173247 -0.06668179 C47.10123236 -0.06763425 52.36072027 -0.07175444 57.62021637 -0.07808304 C72.55300322 -0.09568381 87.48576139 -0.10492371 102.41855869 -0.10342209 C103.22251745 -0.10334218 104.02647621 -0.10326227 104.85479736 -0.10317993 C105.65974503 -0.10309817 106.4646927 -0.10301641 107.29403272 -0.10293217 C120.33417826 -0.10211957 133.37420821 -0.1212538 146.41432032 -0.14945666 C159.8245334 -0.17822964 173.23469018 -0.19199454 186.64493489 -0.19026911 C194.16544687 -0.18960674 201.68583766 -0.19503176 209.20632172 -0.21662521 C215.61003496 -0.23489523 222.01357208 -0.23913686 228.41730019 -0.22560637 C231.67979399 -0.21910585 234.94188275 -0.22105494 238.20435715 -0.23631287 C256.74800088 -0.31739304 272.55110986 0.11389808 286.96417236 13.36898804 C301.21337322 28.44384352 301.15882852 46.48582686 301.36651611 66.01742554 C301.3997422 68.17890391 301.43423661 70.34036318 301.47003174 72.50180054 C301.5543272 77.75687781 301.62292575 83.01197546 301.67901611 88.26742554 C302.2000463 88.05779836 302.72107649 87.84817118 303.25789547 87.63219166 C316.1121895 82.46059243 328.96702463 77.29034013 341.82241726 72.12147236 C348.03992468 69.62151546 354.25725538 67.12112117 360.47418213 64.61972046 C373.4073574 59.4163486 386.34327558 54.21998899 399.28522301 49.03846931 C405.11972833 46.70077625 410.94825381 44.34939872 416.76835918 41.9760828 C419.86388027 40.71561129 422.96342212 39.46527932 426.06407356 38.21748924 C427.42995218 37.66488585 428.79391375 37.10751419 430.15566826 36.5448246 C444.81524849 30.49027968 444.81524849 30.49027968 452.92901611 33.45492554 C456.49679722 35.80641763 458.7712269 38.45184711 460.67901611 42.26742554 C460.78394053 45.32791931 460.82680842 48.36600876 460.82618713 51.42703247 C460.82986382 52.38822628 460.83354051 53.34942009 460.83732861 54.33974099 C460.84839735 57.58094063 460.85221468 60.82210824 460.85601807 64.06332397 C460.86228029 66.3789785 460.86892687 68.69463202 460.87593079 71.01028442 C460.8933625 77.31614938 460.90389837 83.62200673 460.91213632 89.92788982 C460.91728163 93.86476207 460.92335756 97.80163193 460.92964745 101.7385025 C460.94652007 112.63651644 460.96115512 123.53452746 460.96839619 134.43255234 C460.97030611 137.26129915 460.97222644 140.09004595 460.97418213 142.91879272 C460.97466587 143.62187295 460.97514961 144.32495317 460.97564801 145.04933885 C460.98394861 156.43922821 461.00928547 167.82901256 461.04176281 179.21885607 C461.07482789 190.91006067 461.09251164 202.60120649 461.09604043 214.29245782 C461.09839477 220.8576879 461.10740526 227.42275205 461.1325016 233.98793793 C461.15572691 240.16358165 461.16003775 246.33894953 461.14974022 252.51462555 C461.14924341 254.782597 461.1556064 257.05058177 461.16929626 259.31851196 C461.18692971 262.41263572 461.17995066 265.50576041 461.16676331 268.59988403 C461.17773255 269.49930654 461.1887018 270.39872905 461.20000345 271.32540679 C461.14357784 276.80163409 460.31851819 279.91571338 456.67901611 284.26742554 C452.74968054 287.72047801 449.23037393 288.61140157 443.98908997 288.53066063 C439.51477077 288.02080774 435.50411567 286.22372908 431.36456299 284.52645874 C430.36141052 284.12793701 429.35825806 283.72941528 428.32470703 283.31881714 C425.01034669 281.99831446 421.70419899 280.65842203 418.39776611 279.31820679 C416.06494433 278.38410255 413.73164262 277.4511961 411.39788818 276.51942444 C405.86473542 274.30680861 400.33668267 272.08190256 394.81088305 269.85101813 C388.04291093 267.11954083 381.26709854 264.4076955 374.49151611 261.69515991 C350.19100893 251.9595162 325.91693485 242.15791046 301.67901611 232.26742554 C301.67314987 232.8170697 301.66728363 233.36671387 301.66123962 233.93301392 C301.59677069 239.70951936 301.51222129 245.48549488 301.41656494 251.26156616 C301.38353041 253.41058314 301.35543336 255.55968242 301.33258057 257.70883179 C301.13698114 275.62074536 300.63588579 292.54031865 287.68292236 306.38851929 C279.11171593 314.42506957 267.93807109 320.38063295 255.96962643 320.3988533 C255.02096232 320.40269445 254.07229822 320.40653559 253.09488672 320.41049314 C251.53611184 320.40919341 251.53611184 320.40919341 249.94584656 320.40786743 C248.28627248 320.41232412 248.28627248 320.41232412 246.59317166 320.41687083 C242.87234855 320.42556755 239.15155758 320.42706692 235.4307251 320.42855835 C232.76821236 320.4331859 230.10570255 320.43818988 227.44319153 320.44360352 C220.19912086 320.45718302 212.95505573 320.46321133 205.71097445 320.46761417 C201.18542345 320.47037798 196.65987459 320.47461566 192.13432503 320.47911835 C179.59863004 320.49131191 167.06293677 320.50161014 154.52723598 320.50499344 C153.72495339 320.505213 152.9226708 320.50543257 152.09607661 320.50565879 C150.88980151 320.50598621 150.88980151 320.50598621 149.65915722 320.50632024 C148.02962776 320.5067637 146.4000983 320.50721026 144.77056885 320.50765991 C143.96226905 320.50788134 143.15396925 320.50810277 142.32117552 320.50833091 C129.2341192 320.51227594 116.14711865 320.52972056 103.06008386 320.55301943 C89.61614436 320.57675994 76.17223281 320.58919656 62.72827202 320.59036136 C55.18317602 320.59127675 47.63815265 320.59699456 40.09307671 320.61518097 C33.66578955 320.63061862 27.23859745 320.63568099 20.81129526 320.62744287 C17.53496662 320.62354888 14.25886824 320.62605243 10.98255539 320.63850021 C7.42189741 320.65123226 3.86172613 320.64533546 0.30107117 320.63491821 C-0.72249703 320.64297462 -1.74606524 320.65103102 -2.80065066 320.65933156 C-16.20975302 320.56794443 -28.3204616 316.3208939 -38.13348389 307.01742554 C-47.69501414 296.80591648 -51.79619875 285.7328496 -51.71539307 271.85121155 C-51.72148417 270.85136933 -51.72757527 269.85152711 -51.73385096 268.82138664 C-51.7503972 265.49688508 -51.74571706 262.17277006 -51.74090576 258.84823608 C-51.74825095 256.45408737 -51.75683848 254.0599422 -51.76657104 251.665802 C-51.78644848 245.85279085 -51.79217028 240.0398975 -51.79038316 234.22685488 C-51.78907168 229.4979784 -51.79289926 224.76913288 -51.80030823 220.04026222 C-51.80240759 218.67423513 -51.80450519 217.30820803 -51.80660105 215.94218093 C-51.80764458 215.26211035 -51.8086881 214.58203977 -51.80976325 213.88136099 C-51.82863506 201.04056239 -51.82762485 188.19982102 -51.82079393 175.35901431 C-51.81522083 163.63483023 -51.83603928 151.91086483 -51.86915439 140.18673184 C-51.90296069 128.12345132 -51.91805111 116.06027536 -51.91343737 103.99694663 C-51.91119965 97.23430509 -51.91633294 90.47186561 -51.94132996 83.70926476 C-51.96364817 77.3471077 -51.96167641 70.98540466 -51.94140244 64.62324524 C-51.93800141 62.29532326 -51.94304204 59.9673704 -51.95738602 57.63949013 C-52.06110754 39.55100363 -50.34350587 26.57731308 -37.22332764 13.11508179 C-26.27018221 2.74146787 -14.71204801 -0.04453066 0 0 Z M-17.63348389 37.51742554 C-21.47059367 43.77049333 -21.61267452 50.55320481 -21.57495117 57.67953491 C-21.57807115 58.59544151 -21.58119113 59.51134811 -21.58440566 60.45500946 C-21.59234776 63.50713136 -21.5860768 66.55905235 -21.57977295 69.61117554 C-21.58248449 71.80624508 -21.58604634 74.00131371 -21.59039307 76.19638062 C-21.59949988 82.14669024 -21.59597982 88.0969304 -21.5896349 94.04724121 C-21.58456609 100.27884099 -21.5892688 106.51043489 -21.59240723 112.74203491 C-21.59627716 123.87621348 -21.59006768 135.01036475 -21.57988855 146.14453793 C-21.57095366 156.22978692 -21.5725059 166.31498987 -21.58172607 176.40023804 C-21.59244086 188.1257323 -21.59640687 199.85119971 -21.59050155 211.5766983 C-21.58738591 217.77855027 -21.58696138 223.98037054 -21.59357452 230.18222046 C-21.59935803 236.01317497 -21.5953326 241.84404265 -21.58378601 247.67498779 C-21.58114482 249.81310889 -21.58189527 251.9512373 -21.58631134 254.08935547 C-21.5917895 257.01144055 -21.58490502 259.93324865 -21.57495117 262.85531616 C-21.57941262 263.69812889 -21.58387406 264.54094162 -21.5884707 265.40929413 C-21.54607793 271.84096647 -21.12263504 278.30123776 -17.07098389 283.57992554 C-11.03468879 289.47903211 -5.61061 289.70161516 2.42059326 289.64837646 C4.04514506 289.65539642 4.04514506 289.65539642 5.70251608 289.6625582 C9.33217705 289.67452573 12.9614617 289.66504377 16.59112549 289.65560913 C19.19308187 289.65967403 21.79503653 289.66501545 24.39698792 289.67153931 C30.73091575 289.68487354 37.06473688 289.68200031 43.39866889 289.67330138 C48.54674824 289.66652402 53.69479771 289.66560834 58.84288025 289.66887283 C59.5758057 289.66933253 60.30873115 289.66979223 61.06386647 289.67026586 C62.55282788 289.67122504 64.04178929 289.67219768 65.53075069 289.67318363 C79.49011706 289.68173662 93.44942432 289.67190484 107.40878099 289.65578254 C119.3844684 289.64237943 131.36006856 289.64470755 143.33575439 289.65853882 C157.24544222 289.67459626 171.15507824 289.68091266 185.06477404 289.67170203 C186.54823334 289.67074639 188.03169266 289.66980328 189.51515198 289.66887283 C190.60996451 289.66817859 190.60996451 289.66817859 191.72689447 289.66747033 C196.86831157 289.66488093 202.00969578 289.66925035 207.15110779 289.67631149 C214.07204907 289.68560774 220.99282277 289.67898151 227.91374779 289.66162872 C230.45584527 289.65765733 232.9979566 289.65880902 235.5400486 289.66541672 C239.0060337 289.6735962 242.47148783 289.66335341 245.93743896 289.64837646 C246.9469705 289.65506863 247.95650203 289.6617608 248.99662542 289.66865575 C255.22298046 289.6163548 259.74353095 288.91982408 264.54229736 284.58383179 C265.02053955 284.00504272 265.49878174 283.42625366 265.99151611 282.82992554 C266.48264893 282.2537146 266.97378174 281.67750366 267.47979736 281.08383179 C269.53174964 277.97582589 269.8038625 274.86372285 269.81044388 271.20279217 C269.81428502 270.39796388 269.81812617 269.5931356 269.82208371 268.76391858 C269.82078399 267.44618072 269.82078399 267.44618072 269.81945801 266.1018219 C269.82242913 265.16412612 269.82540025 264.22643034 269.82846141 263.26031953 C269.83714994 260.1105796 269.83865679 256.96087768 269.84014893 253.81112671 C269.84477696 251.55591246 269.8498016 249.300699 269.85519409 247.04548645 C269.86832076 240.91321777 269.87476347 234.78096003 269.87920475 228.64867949 C269.88213479 224.81865971 269.88623945 220.98864293 269.89070892 217.15862465 C269.90281714 206.55133661 269.91319963 195.94405118 269.91658401 185.33675671 C269.91680358 184.65810754 269.91702315 183.97945837 269.91724937 183.28024407 C269.91746764 182.59998665 269.91768592 181.91972923 269.91791081 181.21885794 C269.91835428 179.84043451 269.91880084 178.46201108 269.91925049 177.08358765 C269.91947192 176.39984443 269.91969335 175.71610121 269.91992149 175.0116385 C269.92386938 163.93296502 269.94132397 152.85435731 269.96461001 141.77570923 C269.9883325 130.39744895 270.00052835 119.01923277 270.00195193 107.64094335 C270.0030008 101.25403603 270.0089262 94.86722151 270.02677155 88.48033714 C270.04323001 82.47295459 270.04541847 76.46573483 270.03663254 70.45833778 C270.035861 68.2536793 270.04022021 66.04901214 270.05009079 63.84437561 C270.06277804 60.83404928 270.05695076 57.82430232 270.04650879 54.8139801 C270.05456519 53.94218036 270.0626216 53.07038062 270.07092214 52.17216271 C270.02129134 46.05175407 269.13481965 41.06927411 264.96026611 36.30648804 C264.37245361 35.83984741 263.78464111 35.37320679 263.17901611 34.89242554 C262.59120361 34.41031616 262.00339111 33.92820679 261.39776611 33.43148804 C258.3707489 31.38137183 255.73489723 31.14112727 252.1908226 31.13320446 C251.26606652 31.12874662 250.34131044 31.12428877 249.38853145 31.11969584 C248.37094351 31.1198802 247.35335557 31.12006457 246.30493164 31.12025452 C245.22516595 31.11657783 244.14540026 31.11290114 243.0329144 31.10911304 C239.39638887 31.09805521 235.75989189 31.09422881 232.12335205 31.09042358 C229.523462 31.08416058 226.92357285 31.07751392 224.32368469 31.07051086 C216.50874674 31.05074955 208.6938075 31.04068092 200.87885082 31.03178307 C197.1988071 31.02739985 193.51876481 31.02203315 189.83872223 31.0167942 C177.60587742 30.99978268 165.3730335 30.98528823 153.14017868 30.97804546 C149.96578724 30.97613557 146.79139581 30.97421523 143.61700439 30.97225952 C142.82802416 30.97177578 142.03904392 30.97129204 141.22615519 30.97079364 C128.44347401 30.96249226 115.66088637 30.93715321 102.87824604 30.90467884 C89.75528137 30.8716116 76.63236425 30.85359703 63.50935769 30.85040122 C56.14096288 30.84823587 48.7727045 30.83948357 41.40435028 30.81394005 C34.47358544 30.78996898 27.54306997 30.78640527 20.61227226 30.79670143 C18.06736116 30.79719815 15.52243817 30.79083788 12.97756386 30.77714539 C9.50509105 30.75950619 6.03350793 30.76649432 2.56103516 30.77967834 C1.55237011 30.7687091 0.54370506 30.75773985 -0.4955256 30.74643821 C-7.85553378 30.81397062 -12.24132231 32.27099805 -17.63348389 37.51742554 Z M423.39070129 72.84603882 C422.07739838 73.37140984 422.07739838 73.37140984 420.73756409 73.90739441 C419.77924179 74.29690781 418.82091949 74.6864212 417.83355713 75.08773804 C416.82161285 75.49429123 415.80966858 75.90084442 414.76705933 76.31971741 C411.40368485 77.67238838 408.04332922 79.03240076 404.68292236 80.39242554 C402.33634095 81.33778984 399.98957194 82.28268858 397.6426239 83.22714233 C392.07282647 85.46980527 386.50489929 87.71704941 380.93785852 89.96654224 C374.06885637 92.74183771 367.19719701 95.51052836 360.32550049 98.27914429 C353.27690056 101.11934015 346.22851851 103.96006547 339.18183899 106.80502319 C338.09254593 107.24473953 337.00325287 107.68445587 335.88095093 108.13749695 C333.89534112 108.93913309 331.9098279 109.74100857 329.92445374 110.54322815 C320.18529026 114.47493029 310.43085738 118.36668903 300.67901611 122.26742554 C300.67901611 147.34742554 300.67901611 172.42742554 300.67901611 198.26742554 C320.12329803 206.08260852 320.12329803 206.08260852 339.56770897 213.89747047 C346.53014166 216.69566338 353.49255561 219.49390289 360.45489502 222.29232788 C366.56920158 224.7498965 372.68357878 227.20728931 378.79799652 229.6645813 C381.1148379 230.59571674 383.43165677 231.52690822 385.74845123 232.4581604 C386.85421257 232.90262512 387.95997391 233.34708984 389.09924316 233.80502319 C390.18231121 234.24040405 391.26537926 234.67578491 392.38126755 235.12435913 C394.48811687 235.97078512 396.59524839 236.81650909 398.70268631 237.66146851 C403.67252172 239.65425371 408.63832233 241.65590519 413.59588623 243.67904663 C414.52268063 244.05526657 415.44947502 244.43148651 416.4043541 244.81910706 C418.1366308 245.52251208 419.86730483 246.22988215 421.59604263 246.94194031 C422.35720257 247.25004135 423.1183625 247.5581424 423.90258789 247.87557983 C424.56336208 248.14589523 425.22413628 248.41621063 425.90493393 248.69471741 C427.84413183 249.42102982 427.84413183 249.42102982 430.67901611 249.26742554 C430.67901611 190.52742554 430.67901611 131.78742554 430.67901611 71.26742554 C427.64138461 71.26742554 426.16239691 71.72795155 423.39070129 72.84603882 Z " fill="#000000" transform="translate(51.32098388671875,95.73257446289063)"/>
</svg>
