<svg width="16" height="17" viewBox="0 0 16 17" fill="none" xmlns="http://www.w3.org/2000/svg">
<path d="M1.77043 10.3698C1.6254 11.3107 2.27295 11.9634 3.06554 12.2888C6.10449 13.5375 10.333 13.5375 13.372 12.2888C14.1646 11.9634 14.8121 11.31 14.6671 10.3698C14.5785 9.79128 14.138 9.31 13.8118 8.83953C13.3849 8.21583 13.3427 7.5361 13.342 6.8125C13.3427 4.01665 11.0493 1.75 8.21875 1.75C5.38816 1.75 3.09482 4.01665 3.09482 6.8125C3.09482 7.5361 3.0526 8.2165 2.62499 8.83953C2.29951 9.31 1.85963 9.79128 1.77043 10.3698Z" stroke="#38B6FF" stroke-width="2" stroke-linecap="round" stroke-linejoin="round"/>
<path d="M5.49512 13.2256C5.80698 14.39 6.90871 15.2506 8.2188 15.2506C9.52957 15.2506 10.6299 14.39 10.9425 13.2256" stroke="#38B6FF" stroke-width="2" stroke-linecap="round" stroke-linejoin="round"/>
</svg>
